<mxfile host="app.diagrams.net" modified="2024-05-12T08:00:43.921Z" agent="Mozilla/5.0 (Windows NT 10.0; Win64; x64) AppleWebKit/537.36 (KHTML, like Gecko) Chrome/124.0.0.0 Safari/537.36" etag="OoscDFfE5LJPA2xWqe-1" version="24.3.1" type="google">
  <diagram name="Страница — 1" id="2kAPN01lwQMcZ9CfKFzM">
    <mxGraphModel dx="1290" dy="618" grid="1" gridSize="10" guides="1" tooltips="1" connect="1" arrows="1" fold="1" page="1" pageScale="1" pageWidth="827" pageHeight="1169" math="0" shadow="0">
      <root>
        <mxCell id="0" />
        <mxCell id="1" parent="0" />
        <mxCell id="4sdty8JXBrVr-sDxIpbT-3" value="" style="edgeStyle=orthogonalEdgeStyle;rounded=0;orthogonalLoop=1;jettySize=auto;html=1;" parent="1" source="4sdty8JXBrVr-sDxIpbT-1" edge="1">
          <mxGeometry relative="1" as="geometry">
            <mxPoint x="260" y="190" as="targetPoint" />
          </mxGeometry>
        </mxCell>
        <mxCell id="4sdty8JXBrVr-sDxIpbT-1" value="Start" style="rounded=1;whiteSpace=wrap;html=1;" parent="1" vertex="1">
          <mxGeometry x="200" y="50" width="120" height="60" as="geometry" />
        </mxCell>
        <mxCell id="4sdty8JXBrVr-sDxIpbT-9" value="" style="edgeStyle=orthogonalEdgeStyle;rounded=0;orthogonalLoop=1;jettySize=auto;html=1;entryX=0.5;entryY=0;entryDx=0;entryDy=0;" parent="1" source="4sdty8JXBrVr-sDxIpbT-7" target="U8AWKCaGwuY_xm0GdTad-1" edge="1">
          <mxGeometry relative="1" as="geometry">
            <mxPoint x="260" y="280" as="targetPoint" />
          </mxGeometry>
        </mxCell>
        <mxCell id="4sdty8JXBrVr-sDxIpbT-7" value="&lt;p style=&quot;margin: 0px;&quot;&gt;&lt;span style=&quot;font-size: 14.6667px;&quot;&gt;&lt;font face=&quot;Courier New&quot;&gt;inputArray=[]&lt;/font&gt;&lt;/span&gt;&lt;/p&gt;&lt;p style=&quot;margin: 0px;&quot;&gt;&lt;span style=&quot;font-size: 14.6667px;&quot;&gt;&lt;font face=&quot;Courier New&quot;&gt;resultArray=[]&lt;/font&gt;&lt;/span&gt;&lt;/p&gt;" style="shape=parallelogram;perimeter=parallelogramPerimeter;whiteSpace=wrap;html=1;fixedSize=1;" parent="1" vertex="1">
          <mxGeometry x="135" y="150" width="250" height="90" as="geometry" />
        </mxCell>
        <mxCell id="4sdty8JXBrVr-sDxIpbT-10" value="&lt;p style=&quot;margin: 0px;&quot;&gt;&lt;span style=&quot;font-size: 14.6667px;&quot;&gt;&lt;font face=&quot;Courier New&quot;&gt;resultArray add str&lt;/font&gt;&lt;/span&gt;&lt;/p&gt;" style="whiteSpace=wrap;html=1;" parent="1" vertex="1">
          <mxGeometry x="460" y="452.5" width="180" height="85" as="geometry" />
        </mxCell>
        <mxCell id="U8AWKCaGwuY_xm0GdTad-3" value="YES" style="edgeStyle=orthogonalEdgeStyle;rounded=0;orthogonalLoop=1;jettySize=auto;html=1;entryX=0;entryY=0.5;entryDx=0;entryDy=0;" edge="1" parent="1" source="U8AWKCaGwuY_xm0GdTad-7" target="4sdty8JXBrVr-sDxIpbT-10">
          <mxGeometry relative="1" as="geometry" />
        </mxCell>
        <mxCell id="U8AWKCaGwuY_xm0GdTad-12" value="NO" style="edgeStyle=orthogonalEdgeStyle;rounded=0;orthogonalLoop=1;jettySize=auto;html=1;exitX=1;exitY=0.5;exitDx=0;exitDy=0;" edge="1" parent="1" source="U8AWKCaGwuY_xm0GdTad-1" target="U8AWKCaGwuY_xm0GdTad-11">
          <mxGeometry x="-0.7209" relative="1" as="geometry">
            <Array as="points">
              <mxPoint x="710" y="335" />
              <mxPoint x="710" y="620" />
              <mxPoint x="260" y="620" />
            </Array>
            <mxPoint as="offset" />
          </mxGeometry>
        </mxCell>
        <mxCell id="U8AWKCaGwuY_xm0GdTad-1" value="" style="rhombus;whiteSpace=wrap;html=1;" vertex="1" parent="1">
          <mxGeometry x="135" y="280" width="255" height="110" as="geometry" />
        </mxCell>
        <mxCell id="U8AWKCaGwuY_xm0GdTad-2" value="&lt;font style=&quot;font-size: 14px;&quot; face=&quot;Courier New&quot;&gt;for str in inputArray&lt;/font&gt;&lt;div&gt;&lt;br&gt;&lt;/div&gt;" style="text;html=1;align=center;verticalAlign=middle;whiteSpace=wrap;rounded=0;" vertex="1" parent="1">
          <mxGeometry x="180" y="310" width="140" height="50" as="geometry" />
        </mxCell>
        <mxCell id="U8AWKCaGwuY_xm0GdTad-5" value="NO" style="edgeStyle=orthogonalEdgeStyle;rounded=0;orthogonalLoop=1;jettySize=auto;html=1;exitX=0.5;exitY=1;exitDx=0;exitDy=0;entryX=0;entryY=0.5;entryDx=0;entryDy=0;" edge="1" parent="1" source="U8AWKCaGwuY_xm0GdTad-7" target="U8AWKCaGwuY_xm0GdTad-1">
          <mxGeometry relative="1" as="geometry">
            <Array as="points">
              <mxPoint x="260" y="590" />
              <mxPoint x="90" y="590" />
              <mxPoint x="90" y="335" />
            </Array>
          </mxGeometry>
        </mxCell>
        <mxCell id="U8AWKCaGwuY_xm0GdTad-7" value="" style="rhombus;whiteSpace=wrap;html=1;" vertex="1" parent="1">
          <mxGeometry x="135" y="440" width="250" height="110" as="geometry" />
        </mxCell>
        <mxCell id="U8AWKCaGwuY_xm0GdTad-8" value="&lt;div&gt;&lt;font style=&quot;font-size: 14px;&quot; face=&quot;Courier New&quot;&gt;str.length()&amp;gt;=3&lt;/font&gt;&lt;/div&gt;" style="text;html=1;align=center;verticalAlign=middle;whiteSpace=wrap;rounded=0;" vertex="1" parent="1">
          <mxGeometry x="190" y="470" width="140" height="50" as="geometry" />
        </mxCell>
        <mxCell id="U8AWKCaGwuY_xm0GdTad-10" value="YES" style="edgeStyle=orthogonalEdgeStyle;rounded=0;orthogonalLoop=1;jettySize=auto;html=1;exitX=0.5;exitY=1;exitDx=0;exitDy=0;entryX=0.5;entryY=0;entryDx=0;entryDy=0;" edge="1" parent="1" source="U8AWKCaGwuY_xm0GdTad-1" target="U8AWKCaGwuY_xm0GdTad-7">
          <mxGeometry relative="1" as="geometry" />
        </mxCell>
        <mxCell id="U8AWKCaGwuY_xm0GdTad-11" value="&lt;font style=&quot;font-size: 14px;&quot; face=&quot;Courier New&quot;&gt;print resultArray&lt;/font&gt;" style="shape=document;whiteSpace=wrap;html=1;boundedLbl=1;" vertex="1" parent="1">
          <mxGeometry x="200" y="640" width="120" height="80" as="geometry" />
        </mxCell>
      </root>
    </mxGraphModel>
  </diagram>
</mxfile>
